# File produced by Open Asset Import Library (http://www.assimp.sf.net)
# (assimp v3.1.197435470)

mtllib note.mtl

# 108 vertex positions
v  -106.813 64.5531 -65.2411
v  23.669 55.4881 -65.2411
v  -106.813 55.4881 -65.2411
v  23.669 64.5531 -65.2411
v  -106.813 55.4881 65.2411
v  23.669 55.4881 65.2411
v  -106.813 64.5531 65.2411
v  23.669 64.5531 65.2411
v  -106.813 24.5338 1.74021e-05
v  23.669 24.5338 -3.85617e-06
v  -106.813 64.5531 1.74021e-05
v  23.669 64.5531 -3.85617e-06
v  -86.1318 -96.2994 -72.3
v  -92.7047 -85.5465 -85.5464
v  -85.5465 -92.7047 -85.5465
v  -96.2994 -86.1318 -72.3
v  -100 -72.3 -72.3
v  -96.2994 -72.3 -86.1318
v  -96.2994 72.3 -86.1318
v  -96.2994 -86.1318 72.3
v  -86.1318 -96.2994 72.3
v  -85.5464 -92.7047 85.5465
v  -92.7047 -85.5465 85.5465
v  -100 -72.3 72.3
v  -96.2994 -72.3 86.1319
v  -100 72.3 -72.3
v  -92.7048 85.5465 -85.5465
v  -100 72.3 72.3
v  -96.2994 72.3 86.1319
v  -92.7047 85.5465 85.5465
v  -96.2994 86.1318 -72.3
v  -85.5465 92.7047 -85.5464
v  -86.1319 96.2994 -72.3
v  -86.1318 96.2994 72.3
v  -85.5465 92.7047 85.5465
v  -96.2994 86.1318 72.3
v  85.5464 92.7047 -85.5465
v  86.1318 96.2994 -72.3
v  92.7047 85.5465 -85.5465
v  96.2994 86.1318 -72.3
v  100 72.3 -72.3
v  96.2994 72.3 -86.1319
v  96.2994 -72.3 -86.1319
v  96.2994 86.1318 72.3
v  86.1318 96.2994 72.3
v  85.5465 92.7047 85.5464
v  92.7047 85.5465 85.5465
v  100 72.3 72.3
v  96.2994 72.3 86.1318
v  100 -72.3 -72.3
v  92.7047 -85.5465 -85.5465
v  100 -72.3 72.3
v  96.2994 -72.3 86.1318
v  92.7048 -85.5465 85.5464
v  96.2994 -86.1318 -72.3
v  85.5465 -92.7047 -85.5465
v  86.1318 -96.2994 -72.3
v  86.1319 -96.2994 72.3
v  85.5465 -92.7047 85.5465
v  96.2994 -86.1318 72.3
v  -72.3 -100 -72.3
v  -72.3 -96.2994 -86.1318
v  72.3 -100 -72.3
v  72.3 -96.2994 -86.1318
v  -72.3 -100 72.3
v  -72.3 -96.2994 86.1318
v  72.3 -96.2994 86.1318
v  72.3 -100 72.3
v  72.3 100 -72.3
v  72.3 96.2994 -86.1318
v  -72.3 100 -72.3
v  -72.3 96.2994 -86.1318
v  72.3 100 72.3
v  72.3 96.2994 86.1318
v  -72.3 96.2994 86.1318
v  -72.3 100 72.3
v  -86.1319 72.3 -96.2994
v  -85.5465 85.5465 -92.7047
v  -86.1318 -72.3 -96.2994
v  -72.3 86.1318 -96.2994
v  -72.3 72.3 -100
v  72.3 86.1318 -96.2994
v  72.3 72.3 -100
v  85.5465 85.5465 -92.7047
v  86.1318 72.3 -96.2994
v  -72.3 -72.3 -100
v  72.3 -72.3 -100
v  86.1318 -72.3 -96.2994
v  85.5465 -85.5465 -92.7047
v  72.3 -86.1318 -96.2994
v  -72.3 -86.1318 -96.2994
v  -85.5465 -85.5465 -92.7047
v  85.5465 85.5465 92.7047
v  72.3 86.1318 96.2994
v  86.1318 72.3 96.2994
v  72.3 72.3 100
v  -72.3 86.1318 96.2994
v  86.1319 -72.3 96.2994
v  -85.5465 85.5465 92.7047
v  85.5465 -85.5465 92.7047
v  72.3 -72.3 100
v  72.3 -86.1318 96.2994
v  -72.3 72.3 100
v  -72.3 -86.1318 96.2994
v  -72.3 -72.3 100
v  -85.5464 -85.5465 92.7047
v  -86.1318 -72.3 96.2994
v  -86.1318 72.3 96.2994

# 145 UV coordinates
vt 0 0 0
vt 0.404541 0.192871 0
vt 0.382568 0.215332 0
vt 0.381592 0.197754 0
vt 0.405518 0.216309 0
vt 0.405518 0.239746 0
vt 0.381836 0.23877 0
vt 0.381836 0.478027 0
vt 0.642578 0.216309 0
vt 0.643555 0.192871 0
vt 0.666504 0.197754 0
vt 0.665527 0.215332 0
vt 0.642578 0.239746 0
vt 0.666504 0.23877 0
vt 0.405518 0.477051 0
vt 0.382813 0.501709 0
vt 0.642578 0.477051 0
vt 0.666504 0.478027 0
vt 0.665527 0.501465 0
vt 0.405518 0.500244 0
vt 0.381592 0.519043 0
vt 0.404541 0.52417 0
vt 0.643555 0.523926 0
vt 0.666504 0.519043 0
vt 0.642578 0.500244 0
vt 0.969238 0.516846 0
vt 0.946289 0.521973 0
vt 0.968262 0.499512 0
vt 0.945313 0.498047 0
vt 0.945313 0.475098 0
vt 0.969238 0.475586 0
vt 0.969238 0.236816 0
vt 0.708008 0.498047 0
vt 0.707031 0.521729 0
vt 0.684082 0.516602 0
vt 0.685059 0.499512 0
vt 0.708008 0.475098 0
vt 0.68457 0.476074 0
vt 0.945313 0.237305 0
vt 0.968262 0.212891 0
vt 0.708008 0.237305 0
vt 0.684082 0.236816 0
vt 0.685059 0.212891 0
vt 0.945313 0.214355 0
vt 0.969238 0.195313 0
vt 0.946289 0.19043 0
vt 0.707031 0.19043 0
vt 0.684082 0.195313 0
vt 0.708008 0.214355 0
vt 0.692383 0.822998 0
vt 0.71582 0.799561 0
vt 0.715332 0.82312 0
vt 0.692383 0.799927 0
vt 0.953613 0.82312 0
vt 0.71582 0.562012 0
vt 0.692383 0.561523 0
vt 0.692383 0.538574 0
vt 0.715332 0.538574 0
vt 0.953613 0.799561 0
vt 0.977051 0.822998 0
vt 0.977051 0.799927 0
vt 0.977051 0.561523 0
vt 0.953613 0.562012 0
vt 0.953613 0.538574 0
vt 0.977051 0.538574 0
vt 0.401367 0.806396 0
vt 0.401123 0.829956 0
vt 0.378174 0.829834 0
vt 0.37793 0.806885 0
vt 0.63916 0.829956 0
vt 0.401367 0.568848 0
vt 0.37793 0.568604 0
vt 0.378174 0.54541 0
vt 0.401123 0.54541 0
vt 0.63916 0.806396 0
vt 0.662109 0.829834 0
vt 0.662598 0.806885 0
vt 0.662598 0.568604 0
vt 0.63916 0.568848 0
vt 0.63916 0.54541 0
vt 0.662109 0.54541 0
vt 0.0345764 0.543457 0
vt 0.0515747 0.569824 0
vt 0.0274506 0.568115 0
vt 0.0279541 0.809814 0
vt 0.0516663 0.547363 0
vt 0.0480957 0.530273 0
vt 0.0722046 0.523438 0
vt 0.0519104 0.807983 0
vt 0.0740356 0.547363 0
vt 0.074707 0.570557 0
vt 0.312256 0.547363 0
vt 0.314209 0.523438 0
vt 0.338623 0.530273 0
vt 0.311768 0.570557 0
vt 0.334717 0.547363 0
vt 0.352051 0.543945 0
vt 0.358887 0.568115 0
vt 0.334717 0.569824 0
vt 0.0748901 0.807251 0
vt 0.311523 0.807251 0
vt 0.334473 0.807861 0
vt 0.358398 0.809692 0
vt 0.351563 0.834106 0
vt 0.334473 0.8302 0
vt 0.338135 0.84729 0
vt 0.313965 0.854126 0
vt 0.312256 0.8302 0
vt 0.0742798 0.8302 0
vt 0.0724487 0.854126 0
vt 0.0480957 0.847168 0
vt 0.0519409 0.8302 0
vt 0.0348206 0.83374 0
vt 0.352051 0.209473 0
vt 0.328125 0.188965 0
vt 0.345215 0.185059 0
vt 0.332031 0.171875 0
vt 0.328125 0.210938 0
vt 0.352539 0.451172 0
vt 0.305664 0.188965 0
vt 0.307617 0.165039 0
vt 0.0655518 0.165039 0
vt 0.305176 0.211914 0
vt 0.328613 0.449219 0
vt 0.345703 0.475586 0
vt 0.0675049 0.188965 0
vt 0.328613 0.47168 0
vt 0.332275 0.48877 0
vt 0.30835 0.496094 0
vt 0.0451965 0.188965 0
vt 0.0415344 0.171875 0
vt 0.0281677 0.185547 0
vt 0.0682983 0.212402 0
vt 0.0452271 0.211426 0
vt 0.0212708 0.209961 0
vt 0.305664 0.44873 0
vt 0.0457764 0.449707 0
vt 0.0217896 0.45166 0
vt 0.0687256 0.449219 0
vt 0.0457764 0.472168 0
vt 0.0286865 0.475586 0
vt 0.0419312 0.489258 0
vt 0.0681763 0.472168 0
vt 0.0663452 0.496094 0
vt 0.306396 0.47168 0

# 103 vertex normals
vn -0.00392145 -0.00392145 -0.999985
vn -0.00392145 -0.00392145 0.999985
vn -0.00391495 -0.904368 0.426736
vn -0.00390182 -0.901333 -0.433108
vn -0.00392145 0.999985 -0.00392145
vn 0.999985 -0.00392145 -0.00392145
vn -0.999985 -0.00392145 -0.00392145
vn -0.494605 -0.860691 -0.12073
vn -0.774307 -0.447464 -0.447464
vn -0.447464 -0.774307 -0.447464
vn -0.860691 -0.494605 -0.12073
vn -0.981105 -0.136807 -0.136807
vn -0.860691 -0.12073 -0.494605
vn -0.861476 0.113044 -0.495056
vn -0.861476 -0.495056 0.113044
vn -0.495056 -0.861476 0.113044
vn -0.449017 -0.776994 0.441208
vn -0.776994 -0.449017 0.441208
vn -0.982126 -0.13695 0.129124
vn -0.864 -0.121195 0.488688
vn -0.982126 0.129124 -0.13695
vn -0.776994 0.441208 -0.449017
vn -0.98315 0.129259 0.129259
vn -0.864793 0.11348 0.489137
vn -0.779709 0.442749 0.442749
vn -0.864 0.488688 -0.121195
vn -0.450171 0.771163 -0.450171
vn -0.49794 0.858652 -0.121544
vn -0.4984 0.859445 0.113808
vn -0.451752 0.773871 0.443896
vn -0.864793 0.489137 0.11348
vn 0.443896 0.773871 -0.451752
vn 0.492008 0.861998 -0.122018
vn 0.773871 0.443896 -0.451752
vn 0.861998 0.492008 -0.122018
vn 0.981846 0.130124 -0.13801
vn 0.859445 0.113808 -0.4984
vn 0.858652 -0.121544 -0.49794
vn 0.8628 0.492466 0.114252
vn 0.492466 0.8628 0.114252
vn 0.445466 0.776608 0.445466
vn 0.776608 0.445466 0.445466
vn 0.982885 0.130262 0.130262
vn 0.8628 0.114252 0.492466
vn 0.980809 -0.137865 -0.137865
vn 0.771163 -0.450171 -0.450171
vn 0.981846 -0.13801 0.130124
vn 0.861998 -0.122018 0.492008
vn 0.773871 -0.451752 0.443896
vn 0.858652 -0.49794 -0.121544
vn 0.441208 -0.776994 -0.449017
vn 0.488688 -0.864 -0.121195
vn 0.489137 -0.864793 0.11348
vn 0.442749 -0.779709 0.442749
vn 0.859445 -0.4984 0.113808
vn -0.136807 -0.981105 -0.136807
vn -0.12073 -0.860691 -0.494605
vn 0.129124 -0.982126 -0.13695
vn 0.113044 -0.861476 -0.495056
vn -0.13695 -0.982126 0.129124
vn -0.121195 -0.864 0.488688
vn 0.11348 -0.864793 0.489137
vn 0.129259 -0.98315 0.129259
vn 0.130124 0.981846 -0.13801
vn 0.113808 0.859445 -0.4984
vn -0.137865 0.980809 -0.137865
vn -0.121544 0.858652 -0.49794
vn 0.130262 0.982885 0.130262
vn 0.114252 0.8628 0.492466
vn -0.122018 0.861998 0.492008
vn -0.13801 0.981846 0.130124
vn -0.495056 0.113044 -0.861476
vn -0.449017 0.441208 -0.776994
vn -0.494605 -0.12073 -0.860691
vn -0.121195 0.488688 -0.864
vn -0.13695 0.129124 -0.982126
vn 0.11348 0.489137 -0.864793
vn 0.129259 0.129259 -0.98315
vn 0.442749 0.442749 -0.779709
vn 0.489137 0.11348 -0.864793
vn -0.136807 -0.136807 -0.981105
vn 0.129124 -0.13695 -0.982126
vn 0.488688 -0.121195 -0.864
vn 0.441208 -0.449017 -0.776994
vn 0.113044 -0.495056 -0.861476
vn -0.12073 -0.494605 -0.860691
vn -0.447464 -0.447464 -0.774307
vn 0.445466 0.445466 0.776608
vn 0.114252 0.492466 0.8628
vn 0.492466 0.114252 0.8628
vn 0.130262 0.130262 0.982885
vn -0.122018 0.492008 0.861998
vn 0.492008 -0.122018 0.861998
vn -0.451752 0.443896 0.773871
vn 0.443896 -0.451752 0.773871
vn 0.130124 -0.13801 0.981846
vn 0.113808 -0.4984 0.859445
vn -0.13801 0.130124 0.981846
vn -0.121544 -0.49794 0.858652
vn -0.137865 -0.137865 0.980809
vn -0.450171 -0.450171 0.771163
vn -0.49794 -0.121544 0.858652
vn -0.4984 0.113808 0.859445

# Mesh 'SM_block_SM_block' with 20 faces
g SM_block_SM_block
usemtl M_bloc_Glow
f  1/1/1 2/1/1 3/1/1
f  2/1/1 1/1/1 4/1/1
f  5/1/2 6/1/2 7/1/2
f  7/1/2 6/1/2 8/1/2
f  9/1/3 6/1/3 5/1/3
f  6/1/3 9/1/3 10/1/3
f  3/1/4 2/1/4 9/1/4
f  9/1/4 2/1/4 10/1/4
f  7/1/5 8/1/5 11/1/5
f  11/1/5 8/1/5 12/1/5
f  11/1/5 12/1/5 1/1/5
f  1/1/5 12/1/5 4/1/5
f  6/1/6 12/1/6 8/1/6
f  12/1/6 6/1/6 10/1/6
f  10/1/6 2/1/6 12/1/6
f  4/1/6 12/1/6 2/1/6
f  3/1/7 11/1/7 1/1/7
f  11/1/7 3/1/7 9/1/7
f  5/1/7 11/1/7 9/1/7
f  11/1/7 5/1/7 7/1/7

# Mesh 'SM_block_SM_block' with 188 faces
g SM_block_SM_block
usemtl M_bloc_Inst
f  13/2/8 14/3/9 15/4/10
f  14/3/9 13/2/8 16/5/11
f  17/6/12 14/3/9 16/5/11
f  14/3/9 17/6/12 18/7/13
f  17/6/12 19/8/14 18/7/13
f  20/9/15 16/5/11 13/2/8
f  20/9/15 13/2/8 21/10/16
f  21/10/16 22/11/17 20/9/15
f  23/12/18 20/9/15 22/11/17
f  24/13/19 16/5/11 20/9/15
f  24/13/19 20/9/15 23/12/18
f  24/13/19 17/6/12 16/5/11
f  25/14/20 24/13/19 23/12/18
f  19/8/14 17/6/12 26/15/21
f  24/13/19 26/15/21 17/6/12
f  26/15/21 27/16/22 19/8/14
f  28/17/23 24/13/19 25/14/20
f  26/15/21 24/13/19 28/17/23
f  25/14/20 29/18/24 28/17/23
f  30/19/25 28/17/23 29/18/24
f  27/16/22 26/15/21 31/20/26
f  31/20/26 32/21/27 27/16/22
f  32/21/27 31/20/26 33/22/28
f  31/20/26 34/23/29 33/22/28
f  34/23/29 30/19/25 35/24/30
f  36/25/31 31/20/26 26/15/21
f  31/20/26 36/25/31 34/23/29
f  36/25/31 26/15/21 28/17/23
f  30/19/25 34/23/29 36/25/31
f  30/19/25 36/25/31 28/17/23
f  37/26/32 38/27/33 39/28/34
f  40/29/35 39/28/34 38/27/33
f  41/30/36 39/28/34 40/29/35
f  39/28/34 41/30/36 42/31/37
f  41/30/36 43/32/38 42/31/37
f  38/27/33 44/33/39 40/29/35
f  44/33/39 38/27/33 45/34/40
f  45/34/40 46/35/41 44/33/39
f  47/36/42 44/33/39 46/35/41
f  48/37/43 40/29/35 44/33/39
f  48/37/43 44/33/39 47/36/42
f  48/37/43 41/30/36 40/29/35
f  49/38/44 48/37/43 47/36/42
f  43/32/38 41/30/36 50/39/45
f  50/39/45 41/30/36 48/37/43
f  50/39/45 51/40/46 43/32/38
f  49/38/44 52/41/47 48/37/43
f  52/41/47 50/39/45 48/37/43
f  52/41/47 49/38/44 53/42/48
f  54/43/49 52/41/47 53/42/48
f  51/40/46 50/39/45 55/44/50
f  55/44/50 56/45/51 51/40/46
f  56/45/51 55/44/50 57/46/52
f  55/44/50 58/47/53 57/46/52
f  59/48/54 58/47/53 54/43/49
f  60/49/55 55/44/50 50/39/45
f  58/47/53 55/44/50 60/49/55
f  60/49/55 50/39/45 52/41/47
f  60/49/55 54/43/49 58/47/53
f  54/43/49 60/49/55 52/41/47
f  15/50/10 61/51/56 13/52/8
f  61/51/56 15/50/10 62/53/57
f  21/54/16 13/52/8 61/51/56
f  62/53/57 63/55/58 61/51/56
f  63/55/58 62/53/57 64/56/59
f  56/57/51 63/55/58 64/56/59
f  63/55/58 56/57/51 57/58/52
f  21/54/16 61/51/56 65/59/60
f  65/59/60 61/51/56 63/55/58
f  22/60/17 21/54/16 65/59/60
f  22/60/17 65/59/60 66/61/61
f  67/62/62 66/61/61 65/59/60
f  68/63/63 63/55/58 57/58/52
f  65/59/60 63/55/58 68/63/63
f  65/59/60 68/63/63 67/62/62
f  68/63/63 57/58/52 58/64/53
f  67/62/62 68/63/63 59/65/54
f  68/63/63 58/64/53 59/65/54
f  69/66/64 38/67/33 37/68/32
f  70/69/65 69/66/64 37/68/32
f  69/66/64 45/70/40 38/67/33
f  71/71/66 69/66/64 70/69/65
f  70/69/65 72/72/67 71/71/66
f  32/73/27 71/71/66 72/72/67
f  32/73/27 33/74/28 71/71/66
f  69/66/64 73/75/68 45/70/40
f  71/71/66 73/75/68 69/66/64
f  73/75/68 46/76/41 45/70/40
f  46/76/41 73/75/68 74/77/69
f  73/75/68 75/78/70 74/77/69
f  33/74/28 76/79/71 71/71/66
f  71/71/66 76/79/71 73/75/68
f  75/78/70 73/75/68 76/79/71
f  33/74/28 34/80/29 76/79/71
f  76/79/71 35/81/30 75/78/70
f  35/81/30 76/79/71 34/80/29
f  27/82/22 77/83/72 19/84/14
f  77/83/72 18/85/13 19/84/14
f  77/83/72 27/82/22 78/86/73
f  27/82/22 32/87/27 78/86/73
f  32/87/27 72/88/67 78/86/73
f  18/85/13 77/83/72 79/89/74
f  72/88/67 80/90/75 78/86/73
f  78/86/73 81/91/76 77/83/72
f  81/91/76 78/86/73 80/90/75
f  79/89/74 77/83/72 81/91/76
f  82/92/77 80/90/75 72/88/67
f  72/88/67 70/93/65 82/92/77
f  70/93/65 37/94/32 82/92/77
f  83/95/78 81/91/76 80/90/75
f  80/90/75 82/92/77 83/95/78
f  82/92/77 37/94/32 84/96/79
f  84/96/79 83/95/78 82/92/77
f  37/94/32 39/97/34 84/96/79
f  42/98/37 84/96/79 39/97/34
f  83/95/78 84/96/79 85/99/80
f  85/99/80 84/96/79 42/98/37
f  81/91/76 83/95/78 86/100/81
f  79/89/74 81/91/76 86/100/81
f  87/101/82 83/95/78 85/99/80
f  86/100/81 83/95/78 87/101/82
f  42/98/37 88/102/83 85/99/80
f  87/101/82 85/99/80 88/102/83
f  88/102/83 42/98/37 43/103/38
f  43/103/38 51/104/46 88/102/83
f  89/105/84 88/102/83 51/104/46
f  87/101/82 88/102/83 89/105/84
f  56/106/51 89/105/84 51/104/46
f  64/107/59 89/105/84 56/106/51
f  90/108/85 87/101/82 89/105/84
f  90/108/85 89/105/84 64/107/59
f  90/108/85 86/100/81 87/101/82
f  64/107/59 91/109/86 90/108/85
f  86/100/81 90/108/85 91/109/86
f  91/109/86 64/107/59 62/110/57
f  91/109/86 62/110/57 15/111/10
f  92/112/87 86/100/81 91/109/86
f  92/112/87 91/109/86 15/111/10
f  92/112/87 79/89/74 86/100/81
f  15/111/10 14/113/9 92/112/87
f  79/89/74 92/112/87 18/85/13
f  18/85/13 92/112/87 14/113/9
f  74/114/69 93/115/88 46/116/41
f  46/116/41 93/115/88 47/117/42
f  94/118/89 93/115/88 74/114/69
f  75/119/70 94/118/89 74/114/69
f  93/115/88 95/120/90 47/117/42
f  49/121/44 47/117/42 95/120/90
f  95/120/90 53/122/48 49/121/44
f  94/118/89 96/123/91 93/115/88
f  96/123/91 95/120/90 93/115/88
f  94/118/89 75/119/70 97/124/92
f  97/124/92 96/123/91 94/118/89
f  97/124/92 75/119/70 35/125/30
f  53/122/48 95/120/90 98/126/93
f  99/127/94 97/124/92 35/125/30
f  35/125/30 30/128/25 99/127/94
f  30/128/25 29/129/24 99/127/94
f  53/122/48 98/126/93 100/130/95
f  54/131/49 53/122/48 100/130/95
f  59/132/54 54/131/49 100/130/95
f  95/120/90 101/133/96 98/126/93
f  101/133/96 100/130/95 98/126/93
f  101/133/96 95/120/90 96/123/91
f  102/134/97 59/132/54 100/130/95
f  100/130/95 101/133/96 102/134/97
f  67/135/62 59/132/54 102/134/97
f  103/136/98 101/133/96 96/123/91
f  96/123/91 97/124/92 103/136/98
f  99/127/94 103/136/98 97/124/92
f  104/137/99 67/135/62 102/134/97
f  67/135/62 104/137/99 66/138/61
f  105/139/100 102/134/97 101/133/96
f  102/134/97 105/139/100 104/137/99
f  103/136/98 105/139/100 101/133/96
f  66/138/61 104/137/99 106/140/101
f  105/139/100 106/140/101 104/137/99
f  22/141/17 66/138/61 106/140/101
f  22/141/17 106/140/101 23/142/18
f  106/140/101 105/139/100 107/143/102
f  107/143/102 23/142/18 106/140/101
f  103/136/98 107/143/102 105/139/100
f  23/142/18 107/143/102 25/144/20
f  29/129/24 25/144/20 107/143/102
f  107/143/102 103/136/98 108/145/103
f  107/143/102 108/145/103 29/129/24
f  99/127/94 108/145/103 103/136/98
f  29/129/24 108/145/103 99/127/94

